<svg width="25" height="19" viewBox="0 0 25 19" fill="none" xmlns="http://www.w3.org/2000/svg">
<g id="icon - camera">
<path id="Vector" d="M23.4375 15.7828C23.4375 16.2014 23.2729 16.6029 22.9799 16.8988C22.6868 17.1948 22.2894 17.3611 21.875 17.3611H3.125C2.7106 17.3611 2.31317 17.1948 2.02015 16.8988C1.72712 16.6029 1.5625 16.2014 1.5625 15.7828V6.31313C1.5625 5.89454 1.72712 5.4931 2.02015 5.19712C2.31317 4.90113 2.7106 4.73485 3.125 4.73485H4.95625C6.19881 4.73416 7.39026 4.23517 8.26875 3.34754L9.56563 2.04072C9.85782 1.74549 10.2539 1.57921 10.6672 1.57828H14.3297C14.7441 1.57837 15.1414 1.74471 15.4344 2.04072L16.7281 3.34754C17.1635 3.78743 17.6804 4.13636 18.2493 4.3744C18.8182 4.61244 19.428 4.73492 20.0438 4.73485H21.875C22.2894 4.73485 22.6868 4.90113 22.9799 5.19712C23.2729 5.4931 23.4375 5.89454 23.4375 6.31313V15.7828ZM3.125 3.15657C2.2962 3.15657 1.50134 3.48913 0.915291 4.0811C0.32924 4.67307 0 5.47596 0 6.31313L0 15.7828C0 16.62 0.32924 17.4229 0.915291 18.0149C1.50134 18.6068 2.2962 18.9394 3.125 18.9394H21.875C22.7038 18.9394 23.4987 18.6068 24.0847 18.0149C24.6708 17.4229 25 16.62 25 15.7828V6.31313C25 5.47596 24.6708 4.67307 24.0847 4.0811C23.4987 3.48913 22.7038 3.15657 21.875 3.15657H20.0438C19.215 3.15639 18.4203 2.8237 17.8344 2.23169L16.5406 0.924874C15.9547 0.332862 15.16 0.00017878 14.3313 0H10.6687C9.84002 0.00017878 9.04529 0.332862 8.45938 0.924874L7.16563 2.23169C6.57971 2.8237 5.78498 3.15639 4.95625 3.15657H3.125Z" fill="white"/>
<path id="Vector_2" d="M12.5 14.2046C11.464 14.2046 10.4704 13.7889 9.73786 13.0489C9.0053 12.3089 8.59375 11.3053 8.59375 10.2589C8.59375 9.21239 9.0053 8.20878 9.73786 7.46882C10.4704 6.72885 11.464 6.31315 12.5 6.31315C13.536 6.31315 14.5296 6.72885 15.2621 7.46882C15.9947 8.20878 16.4062 9.21239 16.4062 10.2589C16.4062 11.3053 15.9947 12.3089 15.2621 13.0489C14.5296 13.7889 13.536 14.2046 12.5 14.2046ZM12.5 15.7828C13.9504 15.7828 15.3414 15.2009 16.367 14.1649C17.3926 13.129 17.9688 11.7239 17.9688 10.2589C17.9688 8.7938 17.3926 7.38875 16.367 6.3528C15.3414 5.31685 13.9504 4.73486 12.5 4.73486C11.0496 4.73486 9.6586 5.31685 8.63301 6.3528C7.60742 7.38875 7.03125 8.7938 7.03125 10.2589C7.03125 11.7239 7.60742 13.129 8.63301 14.1649C9.6586 15.2009 11.0496 15.7828 12.5 15.7828ZM4.6875 7.10229C4.6875 7.31158 4.60519 7.5123 4.45868 7.66029C4.31216 7.80829 4.11345 7.89143 3.90625 7.89143C3.69905 7.89143 3.50034 7.80829 3.35382 7.66029C3.20731 7.5123 3.125 7.31158 3.125 7.10229C3.125 6.89299 3.20731 6.69227 3.35382 6.54428C3.50034 6.39629 3.69905 6.31315 3.90625 6.31315C4.11345 6.31315 4.31216 6.39629 4.45868 6.54428C4.60519 6.69227 4.6875 6.89299 4.6875 7.10229Z" fill="white"/>
</g>
</svg>
