<svg width="25" height="19" viewBox="0 0 25 19" fill="none" xmlns="http://www.w3.org/2000/svg">
<g id="icon - contacts" clip-path="url(#clip0_172_204)">
<path id="Vector" d="M23.437 18.5484C23.437 18.5484 25 18.5484 25 17.0021C25 15.4559 23.437 10.8194 17.187 10.8194C10.937 10.8194 9.37391 15.4559 9.37391 17.0021C9.37391 18.5484 10.937 18.5484 10.937 18.5484H23.437ZM10.9717 17.0021L10.937 16.9957C10.937 16.5871 11.1978 15.4043 12.1239 14.3376C12.987 13.3376 14.5022 12.3656 17.187 12.3656C19.8717 12.3656 21.3848 13.3398 22.25 14.3376C23.1761 15.4043 23.4348 16.5892 23.437 16.9957H23.4239L23.4022 17.0021H10.9717ZM17.187 7.72903C18.913 7.72903 20.313 6.34409 20.313 4.63656C20.313 2.92903 18.913 1.54624 17.187 1.54624C15.4609 1.54624 14.0609 2.93118 14.0609 4.63656C14.0609 6.34194 15.4609 7.72903 17.187 7.72903ZM21.8739 4.63656C21.8739 7.19785 19.7761 9.27312 17.187 9.27312C14.5978 9.27312 12.5 7.19785 12.5 4.63656C12.5 2.07527 14.5978 0 17.187 0C19.7761 0 21.8739 2.07527 21.8739 4.63656ZM10.837 11.2516C10.2109 11.0581 9.56739 10.9312 8.91522 10.8688C8.54783 10.8344 8.18043 10.8172 7.81304 10.8172C1.56304 10.8194 0 15.4581 0 17.0021C0 18.0323 0.521739 18.5484 1.56304 18.5484H8.15C7.91739 18.0667 7.80217 17.5376 7.81304 17.0021C7.81304 15.4409 8.40217 13.8452 9.51522 12.514C9.89565 12.0602 10.337 11.6344 10.837 11.2538M7.68696 12.3656C6.76304 13.7398 6.26304 15.3527 6.25 17.0021H1.56304C1.56304 16.6 1.81957 15.4108 2.75 14.3376C3.60217 13.3548 5.08043 12.3957 7.68696 12.3677V12.3656ZM2.34348 5.41075C2.34348 2.84946 4.4413 0.774194 7.03043 0.774194C9.61957 0.774194 11.7174 2.84946 11.7174 5.41075C11.7174 7.97204 9.61957 10.0473 7.03043 10.0473C4.4413 10.0473 2.34348 7.97204 2.34348 5.41075ZM7.03043 2.31828C5.30435 2.31828 3.90435 3.70323 3.90435 5.41075C3.90435 7.11828 5.30435 8.50323 7.03043 8.50323C8.75652 8.50323 10.1565 7.11828 10.1565 5.41075C10.1565 3.70323 8.75652 2.31828 7.03043 2.31828Z" fill="white"/>
</g>
<defs>
<clipPath id="clip0_172_204">
<rect width="25" height="18.5484" fill="white"/>
</clipPath>
</defs>
</svg>
