<?xml version="1.0" encoding="UTF-8"?>
<svg id="Layer_1" xmlns="http://www.w3.org/2000/svg" version="1.1" viewBox="0 0 50 50">
  <!-- Generator: Adobe Illustrator 29.5.1, SVG Export Plug-In . SVG Version: 2.1.0 Build 141)  -->
  <path d="M16.5,23c-.7,0-1.3.3-1.8.8s-.7,1.2-.7,1.9.3,1.4.7,1.9c.5.5,1.1.8,1.8.8s1.3-.3,1.8-.8c.5-.5.7-1.2.7-1.9s-.3-1.4-.7-1.9c-.5-.5-1.1-.8-1.8-.8ZM25,23c-.7,0-1.3.3-1.8.8-.5.5-.7,1.2-.7,1.9s.3,1.4.7,1.9c.5.5,1.1.8,1.8.8s1.3-.3,1.8-.8c.5-.5.7-1.2.7-1.9s-.3-1.4-.7-1.9c-.5-.5-1.1-.8-1.8-.8ZM33.5,23c-.7,0-1.3.3-1.8.8-.5.5-.7,1.2-.7,1.9s.3,1.4.7,1.9c.5.5,1.1.8,1.8.8s1.3-.3,1.8-.8c.5-.5.7-1.2.7-1.9s-.3-1.4-.7-1.9-1.1-.8-1.8-.8Z" fill="#fff"/>
</svg>