<svg width="22" height="6" viewBox="0 0 22 6" fill="none" xmlns="http://www.w3.org/2000/svg">
<g id="icon - pin">
<path id="Vector" d="M2.53846 1.85966e-05C1.86522 1.85966e-05 1.21955 0.279759 0.743498 0.7777C0.267444 1.27564 0 1.951 0 2.65519C0 3.35939 0.267444 4.03474 0.743498 4.53268C1.21955 5.03062 1.86522 5.31036 2.53846 5.31036C3.2117 5.31036 3.85737 5.03062 4.33343 4.53268C4.80948 4.03474 5.07692 3.35939 5.07692 2.65519C5.07692 1.951 4.80948 1.27564 4.33343 0.7777C3.85737 0.279759 3.2117 1.85966e-05 2.53846 1.85966e-05ZM11 1.85966e-05C10.3268 1.85966e-05 9.68109 0.279759 9.20504 0.7777C8.72898 1.27564 8.46154 1.951 8.46154 2.65519C8.46154 3.35939 8.72898 4.03474 9.20504 4.53268C9.68109 5.03062 10.3268 5.31036 11 5.31036C11.6732 5.31036 12.3189 5.03062 12.795 4.53268C13.271 4.03474 13.5385 3.35939 13.5385 2.65519C13.5385 1.951 13.271 1.27564 12.795 0.7777C12.3189 0.279759 11.6732 1.85966e-05 11 1.85966e-05ZM19.4615 1.85966e-05C18.7883 1.85966e-05 18.1426 0.279759 17.6666 0.7777C17.1905 1.27564 16.9231 1.951 16.9231 2.65519C16.9231 3.35939 17.1905 4.03474 17.6666 4.53268C18.1426 5.03062 18.7883 5.31036 19.4615 5.31036C20.1348 5.31036 20.7804 5.03062 21.2565 4.53268C21.7326 4.03474 22 3.35939 22 2.65519C22 1.951 21.7326 1.27564 21.2565 0.7777C20.7804 0.279759 20.1348 1.85966e-05 19.4615 1.85966e-05Z" fill="white"/>
</g>
</svg>
