<?xml version="1.0" encoding="UTF-8"?>
<svg id="Layer_1" xmlns="http://www.w3.org/2000/svg" version="1.1" viewBox="0 0 50 50">
  <!-- Generator: Adobe Illustrator 29.5.1, SVG Export Plug-In . SVG Version: 2.1.0 Build 141)  -->
  <path d="M14.8,19.5c0-.7.3-1.4.7-1.9.5-.5,1.1-.8,1.8-.8h15.2c.7,0,1.3.3,1.8.8.5.5.7,1.2.7,1.9v10.7c0,.7-.3,1.4-.7,1.9-.5.5-1.1.8-1.8.8h-15.2c-.7,0-1.3-.3-1.8-.8-.5-.5-.7-1.2-.7-1.9v-10.7ZM17.4,18.2c-.3,0-.7.1-.9.4-.2.3-.4.6-.4.9v.3l8.9,5.6,8.9-5.6v-.3c0-.4-.1-.7-.4-.9-.2-.3-.6-.4-.9-.4h-15.2ZM33.9,21.4l-6,3.8,6,3.9v-7.7ZM33.8,30.6l-7.2-4.7-1.7,1.1-1.7-1.1-7.2,4.6c0,.3.2.5.5.7.2.2.5.3.8.3h15.2c.3,0,.6,0,.8-.3.2-.2.4-.4.5-.7ZM16.1,29l6-3.9-6-3.8v7.7Z" fill="#fff"/>
</svg>