<svg width="22" height="18" viewBox="0 0 22 18" fill="none" xmlns="http://www.w3.org/2000/svg">
<g id="icon - envelope">
<path id="Vector" d="M0.84613 3.52562C0.84613 2.81497 1.11357 2.13344 1.58963 1.63093C2.06568 1.12843 2.71135 0.84613 3.38459 0.84613H18.6154C19.2886 0.84613 19.9343 1.12843 20.4103 1.63093C20.8864 2.13344 21.1538 2.81497 21.1538 3.52562V14.2436C21.1538 14.9542 20.8864 15.6357 20.4103 16.1382C19.9343 16.6408 19.2886 16.9231 18.6154 16.9231H3.38459C2.71135 16.9231 2.06568 16.6408 1.58963 16.1382C1.11357 15.6357 0.84613 14.9542 0.84613 14.2436V3.52562ZM3.38459 2.18587C3.04797 2.18587 2.72514 2.32703 2.48711 2.57828C2.24908 2.82953 2.11536 3.1703 2.11536 3.52562V3.81634L11 9.44326L19.8846 3.81634V3.52562C19.8846 3.1703 19.7509 2.82953 19.5128 2.57828C19.2748 2.32703 18.952 2.18587 18.6154 2.18587H3.38459ZM19.8846 5.37848L13.9091 9.16326L19.8846 13.0445V5.37848ZM19.8414 14.5906L12.683 9.94031L11 11.0054L9.31698 9.94031L2.15851 14.5892C2.23064 14.8743 2.38992 15.1263 2.61162 15.3061C2.83332 15.4858 3.10504 15.5833 3.38459 15.5833H18.6154C18.8947 15.5833 19.1663 15.4861 19.388 15.3066C19.6097 15.1271 19.7691 14.8754 19.8414 14.5906ZM2.11536 13.0445L8.0909 9.16326L2.11536 5.37848V13.0445Z" fill="white"/>
</g>
</svg>
