<?xml version="1.0" encoding="UTF-8"?>
<svg id="Layer_1" xmlns="http://www.w3.org/2000/svg" version="1.1" viewBox="0 0 50 50">
  <!-- Generator: Adobe Illustrator 29.5.1, SVG Export Plug-In . SVG Version: 2.1.0 Build 141)  -->
  <path d="M16.1,37.3c-.1,0-.2,0-.3-.2,0-.1,0-.2,0-.4.1-.3.3-.6.4-1h0c.4-1.2.7-2.4.8-3.5h0s0,0,0,0c-1.9-1.9-3-4.3-3-6.9,0-5.8,5.4-10.4,12-10.4s12,4.7,12,10.4-5.4,10.4-12,10.4h0c-1.2,0-2.4-.2-3.5-.5h0c-.8.4-2.4,1.1-5.2,1.6-.3,0-.7.1-1.1.2,0,0,0,0,0,0h0ZM26,16.5c-5.8,0-10.5,4-10.5,9s.9,4.2,2.5,5.8c.3.3.5.7.4,1.2-.1,1-.3,2-.6,3h0s0,0,0,0c2.1-.5,3.4-1,4-1.3.2-.1.4-.2.7-.2s.3,0,.4,0c1,.3,2.1.4,3.1.4h0c5.8,0,10.5-4,10.5-9s-4.7-9-10.5-9Z" fill="#fff"/>
  <path d="M20.9,30.4c-1,0-1.9-.8-1.9-1.9v-6.8c0-1,.9-1.9,1.9-1.9h10.2c1,0,1.9.8,1.9,1.9v6.8c0,1-.9,1.9-1.9,1.9h-10.2ZM20.3,28.8c.1.2.3.3.6.3h10.2c.2,0,.5-.1.6-.3l-4.5-2.8-1.1.7-1.1-.7-4.5,2.8h0ZM31.7,27.4v-4.1l-3.4,2,3.4,2.1ZM20.3,27.4l3.4-2.1-3.4-2v4.1ZM26,25.2l5.7-3.4h0c0-.4-.3-.7-.6-.7h-10.2c-.4,0-.6.3-.6.6h0c0,0,5.7,3.5,5.7,3.5Z" fill="#fff"/>
</svg>