<svg width="22" height="23" viewBox="0 0 22 23" fill="none" xmlns="http://www.w3.org/2000/svg">
<g id="icon - profile">
<path id="icon - profile_2" d="M11 11.4545C12.3261 11.4545 13.5979 10.9038 14.5355 9.92351C15.4732 8.94321 16 7.61363 16 6.22727C16 4.84091 15.4732 3.51134 14.5355 2.53103C13.5979 1.55073 12.3261 1 11 1C9.67392 1 8.40215 1.55073 7.46447 2.53103C6.52678 3.51134 6 4.84091 6 6.22727C6 7.61363 6.52678 8.94321 7.46447 9.92351C8.40215 10.9038 9.67392 11.4545 11 11.4545ZM14.3333 6.22727C14.3333 7.15151 13.9821 8.0379 13.357 8.69143C12.7319 9.34497 11.8841 9.71212 11 9.71212C10.1159 9.71212 9.2681 9.34497 8.64298 8.69143C8.01786 8.0379 7.66667 7.15151 7.66667 6.22727C7.66667 5.30303 8.01786 4.41665 8.64298 3.76311C9.2681 3.10958 10.1159 2.74242 11 2.74242C11.8841 2.74242 12.7319 3.10958 13.357 3.76311C13.9821 4.41665 14.3333 5.30303 14.3333 6.22727ZM21 20.1667C21 21.9091 19.3333 21.9091 19.3333 21.9091H2.66667C2.66667 21.9091 1 21.9091 1 20.1667C1 18.4242 2.66667 13.197 11 13.197C19.3333 13.197 21 18.4242 21 20.1667ZM19.3333 20.1597C19.3317 19.7311 19.0767 18.4417 17.9467 17.2603C16.86 16.1242 14.815 14.9394 11 14.9394C7.185 14.9394 5.14 16.1242 4.05333 17.2603C2.92333 18.4417 2.67 19.7311 2.66667 20.1597H19.3333Z" fill="white"/>
</g>
</svg>
