<?xml version="1.0" encoding="UTF-8"?>
<svg id="Layer_1" xmlns="http://www.w3.org/2000/svg" version="1.1" viewBox="0 0 50 50">
  <!-- Generator: Adobe Illustrator 29.5.1, SVG Export Plug-In . SVG Version: 2.1.0 Build 141)  -->
  <path d="M25,24.5c1.3,0,2.6-.6,3.5-1.5.9-1,1.5-2.3,1.5-3.7s-.5-2.7-1.5-3.7c-.9-1-2.2-1.5-3.5-1.5s-2.6.6-3.5,1.5c-.9,1-1.5,2.3-1.5,3.7s.5,2.7,1.5,3.7c.9,1,2.2,1.5,3.5,1.5ZM28.3,19.2c0,.9-.4,1.8-1,2.5-.6.7-1.5,1-2.4,1s-1.7-.4-2.4-1c-.6-.7-1-1.5-1-2.5s.4-1.8,1-2.5c.6-.7,1.5-1,2.4-1s1.7.4,2.4,1c.6.7,1,1.5,1,2.5ZM35,33.2c0,1.7-1.7,1.7-1.7,1.7h-16.7s-1.7,0-1.7-1.7,1.7-7,10-7,10,5.2,10,7ZM33.3,33.2c0-.4-.3-1.7-1.4-2.9-1.1-1.1-3.1-2.3-6.9-2.3s-5.9,1.2-6.9,2.3c-1.1,1.2-1.4,2.5-1.4,2.9h16.7Z" fill="#fff"/>
</svg>