<svg width="24" height="24" viewBox="0 0 24 24" fill="none" xmlns="http://www.w3.org/2000/svg">
<g id="icon - calls" clip-path="url(#clip0_172_457)">
<path id="Vector" d="M5.48041 1.99321C5.13539 1.55 4.49578 1.47038 4.05257 1.8154C4.01806 1.84194 3.98622 1.86848 3.95702 1.90032L2.40709 3.4529C1.68256 4.1801 1.4145 5.20719 1.73298 6.10689C3.0467 9.8384 5.18582 13.2249 7.98577 16.0195C10.7804 18.8195 14.1669 20.9559 17.8984 22.2723C18.8008 22.5881 19.8279 22.3227 20.5524 21.5982L22.1023 20.0483C22.5004 19.6502 22.5004 19.0079 22.1023 18.6098C22.0731 18.5806 22.0413 18.5514 22.0068 18.5249L18.546 15.8338C18.2992 15.6427 17.978 15.5763 17.6755 15.6506L14.3898 16.4707C13.4981 16.691 12.5559 16.4309 11.9057 15.7833L8.22198 12.0969C7.57175 11.4467 7.31166 10.5045 7.53194 9.61281L8.35468 6.32717C8.42899 6.02462 8.36264 5.70349 8.17155 5.45666L5.48041 1.99587V1.99321ZM2.82642 0.767071C3.84821 -0.254714 5.5043 -0.254714 6.52873 0.767071C6.6057 0.844036 6.67736 0.92631 6.74371 1.01124L9.43485 4.46938C9.92849 5.10368 10.101 5.92907 9.90726 6.70935L9.08718 9.99498C9.00225 10.34 9.1031 10.7063 9.35523 10.9584L13.0416 14.6448C13.2937 14.8969 13.66 14.9977 14.0077 14.9128L17.2906 14.0927C18.0709 13.899 18.8963 14.0742 19.5306 14.5651L22.9888 17.2563C24.2335 18.225 24.3449 20.0616 23.2329 21.1736L21.683 22.7235C20.5736 23.8329 18.9149 24.3212 17.3676 23.7771C13.4079 22.3864 9.81437 20.1199 6.85252 17.1475C3.88006 14.1856 1.61355 10.5921 0.222863 6.63238C-0.321205 5.08776 0.167129 3.42636 1.2765 2.317L2.82642 0.767071Z" fill="white"/>
</g>
<defs>
<clipPath id="clip0_172_457">
<rect width="24" height="24" fill="white"/>
</clipPath>
</defs>
</svg>
