<?xml version="1.0" encoding="UTF-8"?>
<svg id="Layer_1" xmlns="http://www.w3.org/2000/svg" version="1.1" viewBox="0 0 50 50">
  <!-- Generator: Adobe Illustrator 29.5.1, SVG Export Plug-In . SVG Version: 2.1.0 Build 141)  -->
  <path d="M19.5,15c-.3-.4-1-.5-1.4-.2,0,0,0,0,0,0l-1.5,1.6c-.7.7-1,1.8-.7,2.7,1.3,3.7,3.5,7.1,6.3,9.9,2.8,2.8,6.2,4.9,9.9,6.3.9.3,1.9,0,2.7-.7l1.5-1.5c.4-.4.4-1,0-1.4,0,0,0,0,0,0l-3.5-2.7c-.2-.2-.6-.3-.9-.2l-3.3.8c-.9.2-1.8,0-2.5-.7l-3.7-3.7c-.7-.7-.9-1.6-.7-2.5l.8-3.3c0-.3,0-.6-.2-.9l-2.7-3.5h0ZM16.8,13.8c1-1,2.7-1,3.7,0,0,0,.1.2.2.2l2.7,3.5c.5.6.7,1.5.5,2.2l-.8,3.3c0,.3,0,.7.3,1l3.7,3.7c.3.3.6.4,1,.3l3.3-.8c.8-.2,1.6,0,2.2.5l3.5,2.7c1.2,1,1.4,2.8.2,3.9l-1.5,1.5c-1.1,1.1-2.8,1.6-4.3,1.1-4-1.4-7.6-3.7-10.5-6.6-3-3-5.2-6.6-6.6-10.5-.5-1.5,0-3.2,1.1-4.3l1.5-1.5Z" fill="#fff"/>
</svg>