<svg width="23" height="23" viewBox="0 0 23 23" fill="none" xmlns="http://www.w3.org/2000/svg">
<g id="icon - QR" clip-path="url(#clip0_310_2585)">
<path id="Vector" d="M2.875 2.875H5.75V5.75H2.875V2.875Z" fill="white"/>
<path id="Vector_2" d="M8.625 0V8.625H0V0H8.625ZM7.1875 1.4375H1.4375V7.1875H7.1875V1.4375ZM5.75 17.25H2.875V20.125H5.75V17.25Z" fill="white"/>
<path id="Vector_3" d="M8.625 14.375V23H0V14.375H8.625ZM1.4375 15.8125V21.5625H7.1875V15.8125H1.4375ZM17.25 2.875H20.125V5.75H17.25V2.875Z" fill="white"/>
<path id="Vector_4" d="M14.375 0V8.625H23V0H14.375ZM21.5625 1.4375V7.1875H15.8125V1.4375H21.5625ZM11.5 1.4375V0H12.9375V2.875H11.5V5.75H10.0625V1.4375H11.5ZM11.5 8.625V5.75H12.9375V8.625H11.5ZM8.625 11.5V10.0625H10.0625V8.625H11.5V11.5H12.9375V10.0625H20.125V11.5H14.375V12.9375H10.0625V11.5H8.625ZM8.625 11.5V12.9375H2.875V11.5H1.4375V12.9375H0V10.0625H4.3125V11.5H8.625ZM23 12.9375H21.5625V10.0625H23V12.9375ZM21.5625 12.9375H20.125V15.8125H23V14.375H21.5625V12.9375ZM15.8125 12.9375H18.6875V14.375H17.25V15.8125H15.8125V12.9375ZM18.6875 17.25V15.8125H17.25V17.25H15.8125V18.6875H12.9375V20.125H17.25V17.25H18.6875ZM18.6875 17.25H23V18.6875H20.125V20.125H18.6875V17.25ZM12.9375 15.8125V17.25H14.375V14.375H10.0625V15.8125H12.9375Z" fill="white"/>
<path id="Vector_5" d="M10.0625 17.25H11.5V21.5625H17.25V23H10.0625V17.25ZM23 20.125V23H18.6875V21.5625H21.5625V20.125H23Z" fill="white"/>
</g>
<defs>
<clipPath id="clip0_310_2585">
<rect width="23" height="23" fill="white"/>
</clipPath>
</defs>
</svg>
