<?xml version="1.0" encoding="UTF-8"?>
<svg id="Layer_1" xmlns="http://www.w3.org/2000/svg" version="1.1" viewBox="0 0 50 50">
  <!-- Generator: Adobe Illustrator 29.5.1, SVG Export Plug-In . SVG Version: 2.1.0 Build 141)  -->
  <path d="M21.4,16.3c-1.4.4-2.7.8-4.1,1.2-.1,0-.2.1-.3.2,0,0-.1.2-.2.3-.8,5.9,1,10.3,3.2,13.1.9,1.2,2,2.3,3.3,3.2.5.3.9.6,1.3.8.2,0,.3.1.4.2,0,0,0,0,.1,0,0,0,0,0,.1,0,.1,0,.2,0,.4-.2.3-.2.8-.4,1.3-.8,1.2-.9,2.3-2,3.3-3.2,2.2-2.9,4-7.2,3.2-13.1,0-.1,0-.2-.2-.3,0,0-.2-.2-.3-.2-.9-.3-2.5-.8-4.1-1.2-1.6-.4-3-.7-3.8-.7s-2.2.3-3.8.7ZM21.1,14.8c1.5-.4,3.2-.8,4.2-.8s2.6.4,4.2.8c1.6.4,3.2.9,4.1,1.2.4.1.7.4,1,.7.3.3.4.7.5,1.1.9,6.4-1.1,11.1-3.5,14.3-1,1.3-2.2,2.5-3.6,3.5-.5.3-1,.6-1.5.9-.4.2-.8.3-1.2.3s-.8-.2-1.2-.3c-.5-.3-1-.6-1.5-.9-1.4-1-2.6-2.2-3.6-3.5-2.4-3.1-4.4-7.9-3.5-14.3,0-.4.2-.8.5-1.1.3-.3.6-.6,1-.7,1.4-.4,2.7-.9,4.1-1.2Z" fill="#fff"/>
  <path d="M27.4,23.3c0,.4-.1.9-.4,1.2-.3.4-.6.6-1,.8l.5,2.8c0,.1,0,.2,0,.3,0,.1,0,.2-.1.3,0,0-.2.1-.2.2,0,0-.2,0-.3,0h-1.1c-.1,0-.2,0-.3,0,0,0-.2-.1-.2-.2,0,0-.1-.2-.1-.3,0-.1,0-.2,0-.3l.5-2.8c-.4-.1-.7-.4-.9-.7-.2-.3-.4-.7-.5-1.1,0-.4,0-.8.2-1.1.2-.4.4-.7.7-.9.3-.2.7-.4,1.1-.4.4,0,.8,0,1.1.2.3.2.6.5.8.8.2.3.3.7.3,1.1Z" fill="#fff"/>
</svg>