<svg width="24" height="23" viewBox="0 0 24 23" fill="none" xmlns="http://www.w3.org/2000/svg">
<g id="a" clip-path="url(#clip0_172_194)">
<path id="Vector" d="M2.13913 22.2857C2.016 22.2857 1.9033 22.2234 1.83235 22.1175C1.7593 22.0074 1.74678 21.8724 1.79896 21.752C1.93043 21.4405 2.05565 21.1207 2.16626 20.8008L2.17043 20.7842C2.5753 19.6129 2.85496 18.3856 2.95722 17.3181V17.314L2.95513 17.3119C1.04974 15.4116 0 12.9735 0 10.4482C0 4.68725 5.38226 0 12 0C18.6177 0 24 4.68725 24 10.4482C24 16.2091 18.6177 20.8964 12 20.8964H11.9687C10.7917 20.8964 9.6167 20.7427 8.4793 20.4395H8.47722H8.47304C7.71339 20.8216 6.02713 21.5443 3.26817 22.0884C2.92174 22.157 2.56278 22.2213 2.19757 22.2816C2.17461 22.2857 2.15583 22.2857 2.13704 22.2857H2.13913ZM12 1.47658C6.20035 1.47658 1.48383 5.50134 1.48383 10.4482C1.48383 12.581 2.37913 14.6495 4.00487 16.2714C4.32 16.585 4.47652 17.0191 4.4327 17.4614C4.32835 18.4686 4.12591 19.4738 3.83583 20.4478L3.83165 20.4623L3.84626 20.4582C5.94157 19.9743 7.22504 19.4156 7.80313 19.1228C8.00974 19.019 8.24348 18.9629 8.47722 18.9629C8.60661 18.9629 8.736 18.9795 8.86122 19.0127C9.87548 19.2827 10.921 19.4198 11.9687 19.4198H12C17.7997 19.4198 22.5162 15.395 22.5162 10.4482C22.5162 5.50134 17.7997 1.47658 12 1.47658Z" fill="white"/>
<path id="Vector_2" d="M6.90575 15.366C5.85601 15.366 5.00244 14.5166 5.00244 13.472V6.71212C5.00244 5.66751 5.85601 4.81812 6.90575 4.81812H17.0943C18.144 4.81812 18.9976 5.66751 18.9976 6.71212V13.472C18.9976 14.5166 18.144 15.366 17.0943 15.366H6.90575ZM6.33809 13.7752C6.4487 13.9787 6.66575 14.1137 6.90575 14.1137H17.0943C17.3343 14.1137 17.5513 13.9808 17.6619 13.7773L13.1249 10.9986L12 11.6693L10.8751 10.9986L6.33809 13.7773V13.7752ZM17.7391 12.3505V8.24062L14.3416 10.2696L17.7391 12.3505ZM6.26088 12.3505L9.65844 10.2696L6.26088 8.24062V12.3505ZM12 10.2073L17.7391 6.78065V6.71212C17.7391 6.35907 17.4511 6.0704 17.0943 6.0704H6.90575C6.55096 6.0704 6.26088 6.35699 6.26088 6.71212V6.78065L12 10.2073Z" fill="white"/>
</g>
<defs>
<clipPath id="clip0_172_194">
<rect width="24" height="22.2857" fill="white"/>
</clipPath>
</defs>
</svg>
