<?xml version="1.0" encoding="UTF-8"?>
<svg id="Layer_1" xmlns="http://www.w3.org/2000/svg" version="1.1" viewBox="0 0 50 50">
  <!-- Generator: Adobe Illustrator 29.5.1, SVG Export Plug-In . SVG Version: 2.1.0 Build 141)  -->
  <path d="M21.6,22.3c.2,0,.4,0,.5.2.1.1.2.3.2.5v9.3c0,.2,0,.4-.2.5-.1.1-.3.2-.5.2s-.4,0-.5-.2c-.1-.1-.2-.3-.2-.5v-9.3c0-.2,0-.4.2-.5.1-.1.3-.2.5-.2ZM25.4,22.3c.2,0,.4,0,.5.2.1.1.2.3.2.5v9.3c0,.2,0,.4-.2.5-.1.1-.3.2-.5.2s-.4,0-.5-.2c-.1-.1-.2-.3-.2-.5v-9.3c0-.2,0-.4.2-.5.1-.1.3-.2.5-.2ZM30,23.1c0-.2,0-.4-.2-.5-.1-.1-.3-.2-.5-.2s-.4,0-.5.2c-.1.1-.2.3-.2.5v9.3c0,.2,0,.4.2.5.1.1.3.2.5.2s.4,0,.5-.2c.1-.1.2-.3.2-.5v-9.3Z" fill="#fff"/>
  <path d="M35,18.5c0,.4-.2.8-.5,1.1-.3.3-.7.4-1.1.4h-.8v13.5c0,.8-.3,1.6-.9,2.1s-1.4.9-2.2.9h-9.2c-.8,0-1.6-.3-2.2-.9s-.9-1.3-.9-2.1v-13.5h-.8c-.4,0-.8-.2-1.1-.4-.3-.3-.5-.7-.5-1.1v-1.5c0-.4.2-.8.5-1.1.3-.3.7-.4,1.1-.4h5.4c0-.4.2-.8.5-1.1.3-.3.7-.4,1.1-.4h3.1c.4,0,.8.2,1.1.4.3.3.5.7.5,1.1h5.4c.4,0,.8.2,1.1.4.3.3.5.7.5,1.1v1.5ZM19,20h-.2v13.5c0,.4.2.8.5,1.1.3.3.7.4,1.1.4h9.2c.4,0,.8-.2,1.1-.4.3-.3.5-.7.5-1.1v-13.4h-.2c0,0-11.9,0-11.9,0ZM16.5,18.5h16.9v-1.5h-16.9v1.5Z" fill="#fff"/>
</svg>