<svg width="20" height="23" viewBox="0 0 20 23" fill="none" xmlns="http://www.w3.org/2000/svg">
<g id="icon - trash">
<path id="Vector" d="M6.5972 8.33331C6.7998 8.33331 6.9941 8.41484 7.13735 8.55996C7.28061 8.70507 7.36109 8.9019 7.36109 9.10712V18.3928C7.36109 18.5981 7.28061 18.7949 7.13735 18.94C6.9941 19.0851 6.7998 19.1666 6.5972 19.1666C6.39461 19.1666 6.20031 19.0851 6.05705 18.94C5.91379 18.7949 5.83331 18.5981 5.83331 18.3928V9.10712C5.83331 8.9019 5.91379 8.70507 6.05705 8.55996C6.20031 8.41484 6.39461 8.33331 6.5972 8.33331ZM10.4166 8.33331C10.6192 8.33331 10.8135 8.41484 10.9568 8.55996C11.1001 8.70507 11.1805 8.9019 11.1805 9.10712V18.3928C11.1805 18.5981 11.1001 18.7949 10.9568 18.94C10.8135 19.0851 10.6192 19.1666 10.4166 19.1666C10.2141 19.1666 10.0198 19.0851 9.8765 18.94C9.73324 18.7949 9.65276 18.5981 9.65276 18.3928V9.10712C9.65276 8.9019 9.73324 8.70507 9.8765 8.55996C10.0198 8.41484 10.2141 8.33331 10.4166 8.33331ZM15 9.10712C15 8.9019 14.9195 8.70507 14.7762 8.55996C14.633 8.41484 14.4387 8.33331 14.2361 8.33331C14.0335 8.33331 13.8392 8.41484 13.6959 8.55996C13.5527 8.70507 13.4722 8.9019 13.4722 9.10712V18.3928C13.4722 18.5981 13.5527 18.7949 13.6959 18.94C13.8392 19.0851 14.0335 19.1666 14.2361 19.1666C14.4387 19.1666 14.633 19.0851 14.7762 18.94C14.9195 18.7949 15 18.5981 15 18.3928V9.10712Z" fill="white"/>
<path id="Vector_2" d="M20 4.5C20 4.89782 19.8379 5.27936 19.5494 5.56066C19.2609 5.84196 18.8696 6 18.4615 6H17.6923V19.5C17.6923 20.2956 17.3681 21.0587 16.7911 21.6213C16.2141 22.1839 15.4314 22.5 14.6154 22.5H5.38462C4.56856 22.5 3.78594 22.1839 3.2089 21.6213C2.63187 21.0587 2.30769 20.2956 2.30769 19.5V6H1.53846C1.13044 6 0.739122 5.84196 0.450605 5.56066C0.162087 5.27936 0 4.89782 0 4.5V3C0 2.60218 0.162087 2.22064 0.450605 1.93934C0.739122 1.65804 1.13044 1.5 1.53846 1.5H6.92308C6.92308 1.10218 7.08517 0.720644 7.37368 0.43934C7.6622 0.158035 8.05351 0 8.46154 0L11.5385 0C11.9465 0 12.3378 0.158035 12.6263 0.43934C12.9148 0.720644 13.0769 1.10218 13.0769 1.5H18.4615C18.8696 1.5 19.2609 1.65804 19.5494 1.93934C19.8379 2.22064 20 2.60218 20 3V4.5ZM4.02769 6L3.84615 6.0885V19.5C3.84615 19.8978 4.00824 20.2794 4.29676 20.5607C4.58528 20.842 4.97659 21 5.38462 21H14.6154C15.0234 21 15.4147 20.842 15.7032 20.5607C15.9918 20.2794 16.1538 19.8978 16.1538 19.5V6.0885L15.9723 6H4.02769ZM1.53846 4.5H18.4615V3H1.53846V4.5Z" fill="white"/>
</g>
</svg>
