<svg width="221" height="55" viewBox="0 0 221 55" fill="none" xmlns="http://www.w3.org/2000/svg">
<g clip-path="url(#clip0_1075_1804)">
<path d="M211.423 2.52844H9.2465C5.56481 2.52844 2.57123 5.0699 2.57123 8.19542V47.1105C2.57123 50.236 5.56481 52.7774 9.2465 52.7774H211.419C215.1 52.7774 218.094 50.236 218.094 47.1105V8.19542C218.094 5.0699 215.1 2.52844 211.419 2.52844H211.423Z" fill="#1A576A"/>
<path d="M211.423 54.7743H9.2465C4.46546 54.7743 0.574188 51.3371 0.574188 47.1105V8.19545C0.574188 3.9689 4.46546 0.531616 9.2465 0.531616H211.419C216.2 0.531616 220.091 3.9689 220.091 8.19545V47.1105C220.091 51.3371 216.2 54.7743 211.419 54.7743H211.423ZM9.2465 4.52533C6.71164 4.52533 4.57223 6.20648 4.57223 8.19939V47.1144C4.57223 49.1034 6.71164 50.7885 9.2465 50.7885H211.419C213.997 50.7885 216.093 49.1389 216.093 47.1144V8.19939C216.093 6.21043 213.954 4.52533 211.419 4.52533H9.2465Z" fill="#F4F4F4"/>
<path d="M17 40.2394V15.559H23.0666V40.2394H17Z" fill="white"/>
<path d="M44.558 37.8151C42.859 39.514 40.4663 40.2433 37.904 40.2433H28.7548V15.5629H37.904C40.4702 15.5629 42.863 16.2921 44.558 17.9911C47.4356 20.8687 47.1242 24.0222 47.1242 27.905C47.1242 31.7878 47.4356 34.9414 44.558 37.819V37.8151ZM40.3993 22.3548C39.8435 21.5231 39.0117 20.9673 37.4862 20.9673H34.8175V34.831H37.4862C39.0117 34.831 39.8435 34.2752 40.3993 33.4435C40.8841 32.7497 41.0576 32.0914 41.0576 27.8972C41.0576 23.703 40.8841 23.0447 40.3993 22.3509V22.3548Z" fill="white"/>
<path d="M52.2948 28.0983H62.3783V31.6145H52.2948V28.0983Z" fill="white"/>
<path d="M70.4092 17.2225V40.2394H68.5368V17.2225H61.189V15.559H77.7924V17.2225H70.4092Z" fill="white"/>
<path d="M97.2065 40.2394L91.3133 28.8709H84.5174V40.2394H82.645V15.559H92.0386C96.0594 15.559 99.1104 17.8808 99.1104 22.1814C99.1104 25.8553 96.8911 28.248 93.4262 28.8354L99.3903 40.2394H97.2065ZM91.7982 17.2225H84.5174V27.2074H91.7982C94.9517 27.2074 97.242 25.6148 97.242 22.2169C97.242 18.8189 94.9556 17.2264 91.7982 17.2264V17.2225Z" fill="white"/>
<path d="M112.84 40.4483C107.885 40.4483 104.381 37.0504 104.381 32.2333V15.559H106.253V31.9889C106.253 36.0806 108.886 38.7848 112.84 38.7848C116.794 38.7848 119.427 36.0806 119.427 31.9889V15.559H121.3V32.2333C121.3 37.0504 117.799 40.4483 112.84 40.4483Z" fill="white"/>
<path d="M134.749 40.4483C131.076 40.4483 128.785 39.4431 126.534 37.1884L127.851 35.8717C130.07 38.0911 131.872 38.7848 134.852 38.7848C138.735 38.7848 141.194 36.9124 141.194 33.6879C141.194 32.2334 140.745 31.0192 139.842 30.223C138.94 29.4622 138.281 29.2178 136.271 28.9064L133.393 28.457C131.521 28.181 130.031 27.5543 128.99 26.6555C127.674 25.5478 127.051 24.0223 127.051 22.1144C127.051 17.9912 129.995 15.354 134.71 15.354C137.761 15.354 139.7 16.1857 141.817 18.0227L140.603 19.2368C139.078 17.8847 137.552 16.9505 134.607 16.9505C131.036 16.9505 128.888 18.9254 128.888 22.0474C128.888 23.4704 129.302 24.5426 130.169 25.2719C131.036 26.0012 132.455 26.5885 133.843 26.7974L136.511 27.2113C138.833 27.5582 139.874 27.9721 140.915 28.8393C142.267 29.947 143.063 31.646 143.063 33.6209C143.063 37.7796 139.874 40.4483 134.745 40.4483H134.749Z" fill="white"/>
<path d="M154.68 17.2225V40.2394H152.807V17.2225H145.46V15.559H162.063V17.2225H154.68Z" fill="white"/>
<path d="M166.226 40.2394V15.559H181.201V17.2225H168.098V26.963H179.262V28.6265H168.098V38.5759H181.201V40.2394H166.226Z" fill="white"/>
<path d="M200.82 40.2394L194.927 28.8709H188.131V40.2394H186.259V15.559H195.652C199.673 15.559 202.724 17.8808 202.724 22.1814C202.724 25.8553 200.505 28.248 197.04 28.8354L203 40.2394H200.816H200.82ZM195.412 17.2225H188.131V27.2074H195.412C198.565 27.2074 200.856 25.6148 200.856 22.2169C200.856 18.8189 198.569 17.2264 195.412 17.2264V17.2225Z" fill="white"/>
</g>
<defs>
<clipPath id="clip0_1075_1804">
<rect width="221" height="55" fill="white"/>
</clipPath>
</defs>
</svg>
