<svg width="22" height="22" viewBox="0 0 22 22" fill="none" xmlns="http://www.w3.org/2000/svg">
<g id="questionmark">
<path id="Vector" d="M11 20.6251C8.44729 20.6251 5.99913 19.6111 4.1941 17.806C2.38906 16.001 1.375 13.5528 1.375 11.0001C1.375 8.44741 2.38906 5.99926 4.1941 4.19422C5.99913 2.38918 8.44729 1.37512 11 1.37512C13.5527 1.37512 16.0009 2.38918 17.8059 4.19422C19.6109 5.99926 20.625 8.44741 20.625 11.0001C20.625 13.5528 19.6109 16.001 17.8059 17.806C16.0009 19.6111 13.5527 20.6251 11 20.6251ZM11 22.0001C13.9174 22.0001 16.7153 20.8412 18.7782 18.7783C20.8411 16.7154 22 13.9175 22 11.0001C22 8.08274 20.8411 5.28485 18.7782 3.22195C16.7153 1.15905 13.9174 0.00012207 11 0.00012207C8.08262 0.00012207 5.28473 1.15905 3.22183 3.22195C1.15893 5.28485 0 8.08274 0 11.0001C0 13.9175 1.15893 16.7154 3.22183 18.7783C5.28473 20.8412 8.08262 22.0001 11 22.0001Z" fill="#1A576A"/>
<path id="Vector_2" d="M7.00031 8.05615C6.99829 8.09932 7.00604 8.14242 7.02308 8.18278C7.04011 8.22314 7.06608 8.25991 7.09938 8.29084C7.13268 8.32177 7.1726 8.3462 7.2167 8.36263C7.26081 8.37905 7.30815 8.38713 7.35582 8.38636H8.57281C8.77638 8.38636 8.93865 8.23529 8.9652 8.05214C9.09796 7.17513 9.76178 6.5361 10.9448 6.5361C11.9568 6.5361 12.8832 6.99465 12.8832 8.09759C12.8832 8.94652 12.3315 9.3369 11.4597 9.93048C10.4669 10.5842 9.68064 11.3476 9.7367 12.5869L9.74112 12.877C9.74267 12.9647 9.78221 13.0484 9.8512 13.1099C9.9202 13.1714 10.0131 13.2059 10.1099 13.2059H11.3062C11.4041 13.2059 11.4979 13.1707 11.567 13.108C11.6362 13.0453 11.675 12.9603 11.675 12.8717V12.7313C11.675 11.7714 12.0777 11.492 13.1649 10.7447C14.0633 10.1257 15 9.4385 15 7.99599C15 5.97594 13.1177 5 11.0569 5C9.18795 5 7.14045 5.78877 7.00031 8.05615ZM9.29711 15.7607C9.29711 16.4733 9.92404 17 10.787 17C11.6854 17 12.3034 16.4733 12.3034 15.7607C12.3034 15.0227 11.6839 14.504 10.7855 14.504C9.92404 14.504 9.29711 15.0227 9.29711 15.7607Z" fill="#1A576A"/>
</g>
</svg>
