<svg width="54" height="54" viewBox="0 0 54 54" fill="none" xmlns="http://www.w3.org/2000/svg">
<g id="Swipe button">
<circle id="Swipe" cx="27" cy="27" r="26" fill="#0E5D4A" stroke="white" stroke-width="2"/>
<path id="Vector" d="M35.4714 18.4658C35.6079 18.3183 35.7708 18.2012 35.9506 18.1212C36.1304 18.0412 36.3234 18 36.5184 18C36.7134 18 36.9065 18.0412 37.0862 18.1212C37.266 18.2012 37.4289 18.3183 37.5654 18.4658C38.1374 19.0778 38.1454 20.0668 37.5854 20.6895L25.7592 35.4929C25.6249 35.649 25.462 35.7745 25.2803 35.8616C25.0987 35.9488 24.9022 35.9958 24.7028 35.9997C24.5034 36.0037 24.3053 35.9645 24.1207 35.8847C23.9361 35.8048 23.7689 35.6859 23.6291 35.5352L16.433 27.8137C16.1555 27.514 16 27.111 16 26.6913C16 26.2716 16.1555 25.8686 16.433 25.5689C16.5695 25.4214 16.7324 25.3042 16.9122 25.2243C17.092 25.1443 17.285 25.1031 17.48 25.1031C17.675 25.1031 17.8681 25.1443 18.0478 25.2243C18.2276 25.3042 18.3905 25.4214 18.527 25.5689L24.6312 32.1192L35.4314 18.5124L35.4714 18.4658Z" fill="white"/>
</g>
</svg>
