<svg width="54" height="54" viewBox="0 0 54 54" fill="none" xmlns="http://www.w3.org/2000/svg">
<g id="Swipe button">
<circle id="Swipe" cx="27" cy="27" r="26" fill="#C42121" stroke="white" stroke-width="2"/>
<path id="Vector" d="M23 39.7527C23 39.1949 23.1035 38.6426 23.3045 38.1273C23.5055 37.612 23.8001 37.1437 24.1716 36.7493C24.543 36.3549 24.984 36.0421 25.4693 35.8286C25.9546 35.6152 26.4747 35.5053 27 35.5053C27.5253 35.5053 28.0454 35.6152 28.5307 35.8286C29.016 36.0421 29.457 36.3549 29.8284 36.7493C30.1999 37.1437 30.4945 37.612 30.6955 38.1273C30.8965 38.6426 31 39.1949 31 39.7527C31 40.8791 30.5786 41.9594 29.8284 42.756C29.0783 43.5525 28.0609 44 27 44C25.9391 44 24.9217 43.5525 24.1716 42.756C23.4214 41.9594 23 40.8791 23 39.7527ZM23.392 14.2473C23.3387 13.7115 23.3922 13.1698 23.5488 12.6573C23.7054 12.1448 23.9618 11.673 24.3013 11.2725C24.6407 10.872 25.0557 10.5517 25.5192 10.3325C25.9828 10.1133 26.4846 10 26.992 10C27.4994 10 28.0012 10.1133 28.4648 10.3325C28.9283 10.5517 29.3433 10.872 29.6827 11.2725C30.0222 11.673 30.2786 12.1448 30.4352 12.6573C30.5918 13.1698 30.6453 13.7115 30.592 14.2473L29.192 29.1428C29.1351 29.7203 28.8788 30.2549 28.4725 30.6435C28.0663 31.0322 27.5388 31.2472 26.992 31.2472C26.4452 31.2472 25.9177 31.0322 25.5115 30.6435C25.1052 30.2549 24.8489 29.7203 24.792 29.1428L23.392 14.2473Z" fill="white"/>
</g>
</svg>
