<svg width="54" height="54" viewBox="0 0 54 54" fill="none" xmlns="http://www.w3.org/2000/svg">
<g id="Swipe button">
<circle id="Swipe" cx="27" cy="27" r="27" fill="white"/>
<g id="Vector">
<path d="M13.0653 26.24C13.028 26.654 13 27.077 13 27.5C13 34.952 19.272 41 27 41C34.728 41 41 34.952 41 27.5C41 20.048 34.7373 14 27 14C26.0387 14 25.1053 14.09 24.2 14.27" fill="white"/>
<path d="M13.0653 26.24C13.028 26.654 13 27.077 13 27.5C13 34.952 19.272 41 27 41C34.728 41 41 34.952 41 27.5C41 20.048 34.7373 14 27 14C26.0387 14 25.1053 14.09 24.2 14.27" stroke="#719696" stroke-width="3" stroke-miterlimit="10"/>
</g>
</g>
</svg>
