<svg width="54" height="54" viewBox="0 0 54 54" fill="none" xmlns="http://www.w3.org/2000/svg">
<g id="Swipe button">
<circle id="Swipe" cx="27" cy="27" r="27" fill="white"/>
<path id="Arrow" fill-rule="evenodd" clip-rule="evenodd" d="M16 27C16 26.697 16.1185 26.4063 16.3295 26.192C16.5404 25.9777 16.8265 25.8573 17.1249 25.8573H30.1577L25.3275 20.9531C25.1162 20.7385 24.9976 20.4475 24.9976 20.1441C24.9976 19.8407 25.1162 19.5497 25.3275 19.3351C25.5387 19.1205 25.8252 19 26.1239 19C26.4226 19 26.7091 19.1205 26.9203 19.3351L33.6695 26.191C33.7743 26.2971 33.8574 26.4232 33.9141 26.5621C33.9708 26.7009 34 26.8497 34 27C34 27.1503 33.9708 27.2991 33.9141 27.4379C33.8574 27.5768 33.7743 27.7029 33.6695 27.809L26.9203 34.6649C26.7091 34.8795 26.4226 35 26.1239 35C25.8252 35 25.5387 34.8795 25.3275 34.6649C25.1162 34.4503 24.9976 34.1593 24.9976 33.8559C24.9976 33.5525 25.1162 33.2615 25.3275 33.0469L30.1577 28.1427H17.1249C16.8265 28.1427 16.5404 28.0223 16.3295 27.808C16.1185 27.5937 16 27.3031 16 27Z" fill="#014459"/>
</g>
</svg>
