<svg width="25" height="25" viewBox="0 0 25 25" fill="none" xmlns="http://www.w3.org/2000/svg">
<circle cx="12.5" cy="12.5" r="11.5" fill="#0E5D4A" stroke="white" stroke-width="2"/>
<path d="M16.422 8.54901C16.4852 8.48074 16.5606 8.4265 16.6438 8.38947C16.7271 8.35245 16.8165 8.33337 16.9067 8.33337C16.997 8.33337 17.0864 8.35245 17.1696 8.38947C17.2529 8.4265 17.3283 8.48074 17.3915 8.54901C17.6563 8.83236 17.66 9.29024 17.4007 9.57849L11.9256 16.4319C11.8634 16.5042 11.788 16.5623 11.7039 16.6026C11.6198 16.643 11.5288 16.6647 11.4365 16.6666C11.3442 16.6684 11.2525 16.6503 11.1671 16.6133C11.0816 16.5763 11.0042 16.5213 10.9395 16.4515L7.60793 12.8768C7.47944 12.738 7.40747 12.5514 7.40747 12.3571C7.40747 12.1628 7.47944 11.9762 7.60793 11.8375C7.67112 11.7692 7.74654 11.715 7.82978 11.6779C7.91301 11.6409 8.00238 11.6218 8.09266 11.6218C8.18294 11.6218 8.27232 11.6409 8.35555 11.6779C8.43878 11.715 8.5142 11.7692 8.57739 11.8375L11.4034 14.87L16.4035 8.57058L16.422 8.54901Z" fill="white"/>
</svg>
