<?xml version="1.0" encoding="UTF-8"?>
<svg id="Layer_1" xmlns="http://www.w3.org/2000/svg" version="1.1" viewBox="0 0 35 35">
  <!-- Generator: Adobe Illustrator 29.5.1, SVG Export Plug-In . SVG Version: 2.1.0 Build 141)  -->
  <path d="M15,15.5c.1,0,.3,0,.4.1,0,0,.1.2.1.4v6c0,.1,0,.3-.1.4s-.2.1-.4.1-.3,0-.4-.1-.1-.2-.1-.4v-6c0-.1,0-.3.1-.4,0,0,.2-.1.4-.1ZM17.5,15.5c.1,0,.3,0,.4.1,0,0,.1.2.1.4v6c0,.1,0,.3-.1.4s-.2.1-.4.1-.3,0-.4-.1-.1-.2-.1-.4v-6c0-.1,0-.3.1-.4,0,0,.2-.1.4-.1ZM20.5,16c0-.1,0-.3-.1-.4,0,0-.2-.1-.4-.1s-.3,0-.4.1c0,0-.1.2-.1.4v6c0,.1,0,.3.1.4s.2.1.4.1.3,0,.4-.1.1-.2.1-.4v-6Z" fill="#656565"/>
  <path d="M24,13c0,.3-.1.5-.3.7s-.4.3-.7.3h-.5v9c0,.5-.2,1-.6,1.4-.4.4-.9.6-1.4.6h-6c-.5,0-1-.2-1.4-.6-.4-.4-.6-.9-.6-1.4v-9h-.5c-.3,0-.5-.1-.7-.3s-.3-.4-.3-.7v-1c0-.3.1-.5.3-.7s.4-.3.7-.3h3.5c0-.3.1-.5.3-.7s.4-.3.7-.3h2c.3,0,.5.1.7.3s.3.4.3.7h3.5c.3,0,.5.1.7.3s.3.4.3.7v1ZM13.6,14h-.1v9c0,.3.1.5.3.7s.4.3.7.3h6c.3,0,.5-.1.7-.3s.3-.4.3-.7v-8.9h-.1c0,0-7.8,0-7.8,0ZM12,13h11v-1h-11v1Z" fill="#656565"/>
</svg>