<svg width="25" height="25" viewBox="0 0 25 25" fill="none" xmlns="http://www.w3.org/2000/svg">
<circle cx="12.5" cy="12.5" r="11.5" fill="#C42121" stroke="white" stroke-width="2"/>
<path d="M10.6482 18.404C10.6482 18.1458 10.6961 17.8901 10.7892 17.6515C10.8822 17.413 11.0186 17.1962 11.1906 17.0136C11.3625 16.831 11.5667 16.6862 11.7914 16.5873C12.016 16.4885 12.2569 16.4377 12.5 16.4377C12.7432 16.4377 12.984 16.4885 13.2087 16.5873C13.4334 16.6862 13.6375 16.831 13.8095 17.0136C13.9815 17.1962 14.1179 17.413 14.2109 17.6515C14.304 17.8901 14.3519 18.1458 14.3519 18.404C14.3519 18.9255 14.1568 19.4257 13.8095 19.7944C13.4622 20.1632 12.9912 20.3704 12.5 20.3704C12.0089 20.3704 11.5379 20.1632 11.1906 19.7944C10.8433 19.4257 10.6482 18.9255 10.6482 18.404ZM10.8297 6.596C10.805 6.34793 10.8297 6.09712 10.9023 5.85985C10.9748 5.62258 11.0935 5.40415 11.2506 5.21874C11.4078 5.03332 11.5999 4.88506 11.8145 4.78357C12.0291 4.68208 12.2614 4.62964 12.4963 4.62964C12.7313 4.62964 12.9636 4.68208 13.1782 4.78357C13.3928 4.88506 13.5849 5.03332 13.742 5.21874C13.8992 5.40415 14.0179 5.62258 14.0904 5.85985C14.1629 6.09712 14.1877 6.34793 14.163 6.596L13.5149 13.492C13.4885 13.7594 13.3699 14.0069 13.1818 14.1868C12.9937 14.3668 12.7495 14.4663 12.4963 14.4663C12.2432 14.4663 11.999 14.3668 11.8109 14.1868C11.6228 14.0069 11.5042 13.7594 11.4778 13.492L10.8297 6.596Z" fill="white"/>
</svg>
