<?xml version="1.0" encoding="UTF-8"?>
<svg id="Layer_1" xmlns="http://www.w3.org/2000/svg" version="1.1" viewBox="0 0 35 35">
  <!-- Generator: Adobe Illustrator 29.5.1, SVG Export Plug-In . SVG Version: 2.1.0 Build 141)  -->
  <path d="M12.9,24.4c0,.4.4.8.7.6l4.4-2.3,4.4,2.3c.4.2.8-.1.7-.6l-.8-4.7,3.5-3.4c.3-.3.2-.9-.3-.9l-4.9-.7-2.2-4.3c0,0-.1-.2-.2-.2,0,0-.2,0-.3,0s-.2,0-.3,0c0,0-.1.1-.2.2l-2.2,4.3-4.9.7c-.4,0-.6.6-.3,1l3.5,3.4-.8,4.7h0ZM17.8,21.6l-3.7,1.9.7-4c0,0,0-.2,0-.3,0,0,0-.2-.1-.2l-2.9-2.8,4.1-.6c0,0,.2,0,.2,0,0,0,.1-.1.2-.2l1.8-3.7,1.8,3.7c0,0,0,.1.2.2,0,0,.1,0,.2,0l4.1.6-2.9,2.8c0,0-.1.1-.1.2,0,0,0,.2,0,.3l.7,4-3.7-1.9c0,0-.2,0-.2,0s-.2,0-.2,0Z" fill="#656565"/>
</svg>