<svg width="25" height="25" viewBox="0 0 25 25" fill="none" xmlns="http://www.w3.org/2000/svg">
<circle cx="12.5" cy="12.5" r="12.5" fill="white"/>
<path d="M6.0488 12.1481C6.03152 12.3398 6.01855 12.5356 6.01855 12.7314C6.01855 16.1814 8.92226 18.9814 12.5 18.9814C16.0778 18.9814 18.9815 16.1814 18.9815 12.7314C18.9815 9.28145 16.0821 6.48145 12.5 6.48145C12.055 6.48145 11.6229 6.52311 11.2037 6.60645" fill="white"/>
<path d="M6.0488 12.1481C6.03152 12.3398 6.01855 12.5356 6.01855 12.7314C6.01855 16.1814 8.92226 18.9814 12.5 18.9814C16.0778 18.9814 18.9815 16.1814 18.9815 12.7314C18.9815 9.28145 16.0821 6.48145 12.5 6.48145C12.055 6.48145 11.6229 6.52311 11.2037 6.60645" stroke="#719696" stroke-width="3" stroke-miterlimit="10"/>
</svg>
