<svg width="16" height="16" viewBox="0 0 16 16" fill="none" xmlns="http://www.w3.org/2000/svg">
<mask id="mask0_1795_2680" style="mask-type:alpha" maskUnits="userSpaceOnUse" x="0" y="0" width="16" height="16">
<rect width="16" height="16" fill="#D9D9D9"/>
</mask>
<g mask="url(#mask0_1795_2680)">
<path d="M8.66693 8.40001V6.00001C8.66693 5.81112 8.60304 5.65278 8.47526 5.52501C8.34748 5.39723 8.18915 5.33334 8.00026 5.33334C7.81137 5.33334 7.65304 5.39723 7.52526 5.52501C7.39748 5.65278 7.33359 5.81112 7.33359 6.00001V8.65001C7.33359 8.73889 7.35026 8.82501 7.38359 8.90834C7.41693 8.99167 7.46693 9.06667 7.53359 9.13334L9.40026 11C9.52248 11.1222 9.67804 11.1833 9.86693 11.1833C10.0558 11.1833 10.2114 11.1222 10.3336 11C10.4558 10.8778 10.5169 10.7222 10.5169 10.5333C10.5169 10.3445 10.4558 10.1889 10.3336 10.0667L8.66693 8.40001ZM8.00026 14.6667C7.16693 14.6667 6.38637 14.5083 5.65859 14.1917C4.93082 13.875 4.29748 13.4472 3.75859 12.9083C3.2197 12.3695 2.79193 11.7361 2.47526 11.0083C2.15859 10.2806 2.00026 9.50001 2.00026 8.66667C2.00026 7.83334 2.15859 7.05278 2.47526 6.32501C2.79193 5.59723 3.2197 4.9639 3.75859 4.42501C4.29748 3.88612 4.93082 3.45834 5.65859 3.14167C6.38637 2.82501 7.16693 2.66667 8.00026 2.66667C8.83359 2.66667 9.61415 2.82501 10.3419 3.14167C11.0697 3.45834 11.703 3.88612 12.2419 4.42501C12.7808 4.9639 13.2086 5.59723 13.5253 6.32501C13.8419 7.05278 14.0003 7.83334 14.0003 8.66667C14.0003 9.50001 13.8419 10.2806 13.5253 11.0083C13.2086 11.7361 12.7808 12.3695 12.2419 12.9083C11.703 13.4472 11.0697 13.875 10.3419 14.1917C9.61415 14.5083 8.83359 14.6667 8.00026 14.6667ZM1.36693 4.86667C1.2447 4.74445 1.18359 4.5889 1.18359 4.40001C1.18359 4.21112 1.2447 4.05556 1.36693 3.93334L3.26693 2.03334C3.38915 1.91112 3.5447 1.85001 3.73359 1.85001C3.92248 1.85001 4.07804 1.91112 4.20026 2.03334C4.32248 2.15556 4.38359 2.31112 4.38359 2.50001C4.38359 2.6889 4.32248 2.84445 4.20026 2.96667L2.30026 4.86667C2.17804 4.9889 2.02248 5.05001 1.83359 5.05001C1.6447 5.05001 1.48915 4.9889 1.36693 4.86667ZM14.6336 4.86667C14.5114 4.9889 14.3558 5.05001 14.1669 5.05001C13.978 5.05001 13.8225 4.9889 13.7003 4.86667L11.8003 2.96667C11.678 2.84445 11.6169 2.6889 11.6169 2.50001C11.6169 2.31112 11.678 2.15556 11.8003 2.03334C11.9225 1.91112 12.078 1.85001 12.2669 1.85001C12.4558 1.85001 12.6114 1.91112 12.7336 2.03334L14.6336 3.93334C14.7558 4.05556 14.8169 4.21112 14.8169 4.40001C14.8169 4.5889 14.7558 4.74445 14.6336 4.86667ZM8.00026 13.3333C9.30026 13.3333 10.403 12.8806 11.3086 11.975C12.2141 11.0695 12.6669 9.96667 12.6669 8.66667C12.6669 7.36667 12.2141 6.2639 11.3086 5.35834C10.403 4.45278 9.30026 4.00001 8.00026 4.00001C6.70026 4.00001 5.59748 4.45278 4.69193 5.35834C3.78637 6.2639 3.33359 7.36667 3.33359 8.66667C3.33359 9.96667 3.78637 11.0695 4.69193 11.975C5.59748 12.8806 6.70026 13.3333 8.00026 13.3333Z" fill="white"/>
</g>
</svg>
