<svg width="61" height="61" viewBox="0 0 61 61" fill="none" xmlns="http://www.w3.org/2000/svg">
<mask id="mask0_1753_3865" style="mask-type:alpha" maskUnits="userSpaceOnUse" x="0" y="0" width="61" height="61">
<rect x="0.5" y="0.5" width="60" height="60" fill="#D9D9D9"/>
</mask>
<g mask="url(#mask0_1753_3865)">
<path d="M30.5 18C29.7917 18 29.1979 17.7604 28.7188 17.2812C28.2396 16.8021 28 16.2083 28 15.5V8C28 7.29167 28.2396 6.69792 28.7188 6.21875C29.1979 5.73958 29.7917 5.5 30.5 5.5C31.2083 5.5 31.8021 5.73958 32.2812 6.21875C32.7604 6.69792 33 7.29167 33 8V15.5C33 16.2083 32.7604 16.8021 32.2812 17.2812C31.8021 17.7604 31.2083 18 30.5 18ZM42.75 23.25C42.2917 22.75 42.0521 22.1667 42.0312 21.5C42.0104 20.8333 42.25 20.25 42.75 19.75L48.0625 14.4375C48.5625 13.9375 49.1562 13.6979 49.8438 13.7188C50.5312 13.7396 51.125 14 51.625 14.5C52.0833 15 52.3229 15.5833 52.3438 16.25C52.3646 16.9167 52.125 17.5 51.625 18L46.3125 23.3125C45.8125 23.8125 45.2188 24.0521 44.5312 24.0312C43.8438 24.0104 43.25 23.75 42.75 23.25ZM18.25 23.25C17.75 23.75 17.1562 24.0104 16.4688 24.0312C15.7812 24.0521 15.1875 23.8125 14.6875 23.3125L9.375 18C8.875 17.5 8.63542 16.9167 8.65625 16.25C8.67708 15.5833 8.91667 15 9.375 14.5C9.875 14 10.4688 13.7396 11.1562 13.7188C11.8438 13.6979 12.4375 13.9375 12.9375 14.4375L18.25 19.75C18.75 20.25 18.9896 20.8333 18.9688 21.5C18.9479 22.1667 18.7083 22.75 18.25 23.25ZM9 51.5L3.25 45.875C2.75 45.375 2.5 44.7917 2.5 44.125C2.5 43.4583 2.75 42.875 3.25 42.375C6.91667 38.4167 11.1458 35.4479 15.9375 33.4688C20.7292 31.4896 25.5833 30.5 30.5 30.5C35.4167 30.5 40.2604 31.4896 45.0312 33.4688C49.8021 35.4479 54.0417 38.4167 57.75 42.375C58.25 42.875 58.5 43.4583 58.5 44.125C58.5 44.7917 58.25 45.375 57.75 45.875L52 51.5C51.5417 51.9583 51.0104 52.2083 50.4062 52.25C49.8021 52.2917 49.25 52.125 48.75 51.75L41.5 46.25C41.1667 46 40.9167 45.7083 40.75 45.375C40.5833 45.0417 40.5 44.6667 40.5 44.25V37.125C38.9167 36.625 37.2917 36.2292 35.625 35.9375C33.9583 35.6458 32.25 35.5 30.5 35.5C28.75 35.5 27.0417 35.6458 25.375 35.9375C23.7083 36.2292 22.0833 36.625 20.5 37.125V44.25C20.5 44.6667 20.4167 45.0417 20.25 45.375C20.0833 45.7083 19.8333 46 19.5 46.25L12.25 51.75C11.75 52.125 11.1979 52.2917 10.5938 52.25C9.98958 52.2083 9.45833 51.9583 9 51.5ZM15.5 38.875C14.2917 39.5 13.125 40.2188 12 41.0312C10.875 41.8438 9.70833 42.75 8.5 43.75L11 46.25L15.5 42.75V38.875ZM45.5 39V42.75L50 46.25L52.5 43.875C51.2917 42.7917 50.125 41.8542 49 41.0625C47.875 40.2708 46.7083 39.5833 45.5 39Z" fill="#014459"/>
</g>
</svg>
