<svg width="82" height="82" viewBox="0 0 82 82" fill="none" xmlns="http://www.w3.org/2000/svg">
<g id="Add new">
<g id="glow" opacity="0.3" filter="url(#filter0_f_182_463)">
<circle cx="40.9092" cy="40.909" r="30.7273" fill="black"/>
</g>
<circle id="BG" cx="41.5" cy="41.5" r="31" fill="#1A576A" stroke="white" stroke-width="3"/>
<path id="Vector" d="M41.041 29.929C41.3465 29.9593 41.6335 30.0948 41.8525 30.3137L41.9414 30.4114C42.136 30.6488 42.244 30.9474 42.2441 31.2571V40.7561H51.7422C52.0962 40.7561 52.4362 40.8964 52.6865 41.1467L52.7744 41.2454C52.969 41.4829 53.0771 41.7813 53.0771 42.0911C53.0771 42.4008 52.9691 42.6993 52.7744 42.9368L52.6865 43.0344C52.4362 43.2848 52.0962 43.426 51.7422 43.426H42.2441V52.9241C42.2441 53.2338 42.1359 53.5323 41.9414 53.7698L41.8525 53.8684C41.6023 54.1185 41.263 54.259 40.9092 54.259C40.5994 54.259 40.301 54.1509 40.0635 53.9563L39.9648 53.8684C39.7145 53.6181 39.5742 53.2781 39.5742 52.9241V43.426H30.0752C29.7655 43.4259 29.4669 43.3179 29.2295 43.1233L29.1318 43.0344C28.8816 42.7841 28.7413 42.445 28.7412 42.0911C28.7412 41.737 28.8815 41.3971 29.1318 41.1467C29.382 40.8966 29.7214 40.7562 30.0752 40.7561H39.5742V31.2571C39.5743 30.9033 39.7147 30.5639 39.9648 30.3137C40.2152 30.0634 40.5552 29.9231 40.9092 29.9231L41.041 29.929Z" fill="white" stroke="white" stroke-width="0.7"/>
</g>
<defs>
<filter id="filter0_f_182_463" x="0.181885" y="0.181763" width="81.4546" height="81.4546" filterUnits="userSpaceOnUse" color-interpolation-filters="sRGB">
<feFlood flood-opacity="0" result="BackgroundImageFix"/>
<feBlend mode="normal" in="SourceGraphic" in2="BackgroundImageFix" result="shape"/>
<feGaussianBlur stdDeviation="5" result="effect1_foregroundBlur_182_463"/>
</filter>
</defs>
</svg>
