<?xml version="1.0" encoding="UTF-8"?>
<svg id="Layer_1" xmlns="http://www.w3.org/2000/svg" version="1.1" viewBox="0 0 66 65.8">
  <!-- Generator: Adobe Illustrator 29.5.1, SVG Export Plug-In . SVG Version: 2.1.0 Build 141)  -->
  <g>
    <circle cx="33" cy="32.8" r="31" fill="#1a576a"/>
    <path d="M33,65.3C15.1,65.3.5,50.7.5,32.8S15.1.3,33,.3s32.5,14.6,32.5,32.5-14.6,32.5-32.5,32.5ZM33,3.3C16.7,3.3,3.5,16.5,3.5,32.8s13.2,29.5,29.5,29.5,29.5-13.2,29.5-29.5S49.3,3.3,33,3.3Z" fill="#fff"/>
  </g>
  <path d="M32.4,45.9c-.5,0-.9-.2-1.2-.5-.3-.3-.5-.7-.5-1.2v-9.1h-9.1c-.4,0-.9-.2-1.2-.5-.3-.3-.5-.7-.5-1.2s.2-.9.5-1.2.7-.5,1.2-.5h9.1v-9.1c0-.4.2-.9.5-1.2.6-.6,1.7-.6,2.4,0s.5.7.5,1.2v9.1h9.1c.4,0,.9.2,1.2.5.3.3.5.7.5,1.2s-.2.9-.5,1.2c-.3.3-.7.5-1.2.5h-9.1v9.1c0,.4-.2.9-.5,1.2-.3.3-.7.5-1.2.5Z" fill="#fff"/>
</svg>